<svg width="126" height="126" viewBox="0 0 126 126" fill="none" xmlns="http://www.w3.org/2000/svg">
<path d="M72.4488 85.051V99.6509C72.4488 100.72 72.4488 101.254 72.5772 101.69C72.8795 102.716 73.6823 103.519 74.7087 103.821C75.1445 103.95 75.6789 103.95 76.7478 103.95C77.438 103.95 78.105 103.95 78.7495 103.949C81.9469 103.944 84.5931 103.912 86.8016 103.727C89.525 103.498 91.8631 103.017 94.0063 101.893C97.451 100.086 100.235 97.2122 101.974 93.6984C103.05 91.5238 103.512 89.1512 103.733 86.368C103.949 83.6475 103.949 80.2748 103.949 76.0298L103.949 68.6809C103.95 64.9862 103.95 62.579 103.38 60.2935C102.875 58.2717 102.044 56.3482 100.918 54.6037C99.6422 52.6282 97.8929 51.0082 95.2294 48.5415L81.2276 35.569C78.4487 32.9942 76.2282 30.937 74.2968 29.4097C72.314 27.8417 70.4405 26.6699 68.3023 26.0056C64.8445 24.9312 61.1532 24.9312 57.6953 26.0056C55.5572 26.6699 53.6837 27.8417 51.7009 29.4097C49.7694 30.937 47.549 32.9942 44.7701 35.569L30.7683 48.5415C28.1047 51.0082 26.3555 52.6282 25.0801 54.6037C23.9538 56.3482 23.1223 58.2717 22.6179 60.2935C22.0477 62.579 22.0482 64.9862 22.0489 68.6809L22.0489 76.0298C22.0489 80.2747 22.0489 83.6475 22.2648 86.368C22.4857 89.1512 22.9474 91.5238 24.0238 93.6984C25.7629 97.2122 28.5467 100.086 31.9914 101.893C34.1346 103.017 36.4726 103.498 39.1961 103.727C41.4047 103.912 44.0511 103.944 47.2487 103.949C47.8931 103.95 48.5598 103.95 49.2499 103.95C50.3187 103.95 50.8532 103.95 51.2889 103.821C52.3154 103.519 53.1181 102.716 53.4205 101.69C53.5489 101.254 53.5489 100.72 53.5489 99.6509V85.051C53.5489 81.9188 53.5759 80.9707 53.7635 80.2705C54.3461 78.0964 56.0442 76.3983 58.2183 75.8157C58.9185 75.6281 59.8666 75.601 62.9988 75.601C66.131 75.601 67.0792 75.6281 67.7794 75.8157C69.9535 76.3983 71.6516 78.0964 72.2341 80.2705C72.4218 80.9707 72.4488 81.9188 72.4488 85.051Z" fill="#20BF6B"/>
</svg>
