<svg width="126" height="126" viewBox="0 0 126 126" fill="none" xmlns="http://www.w3.org/2000/svg">
<path d="M46.8176 37.9671L44.6767 35.6564L44.6767 35.6564L46.8176 37.9671ZM58.6323 29.0126L59.567 32.0207L58.6323 29.0126ZM79.1848 37.967L77.0439 40.2777L79.1848 37.967ZM67.37 29.0126L66.4354 32.0207L67.37 29.0126ZM33.4568 99.1021L31.9936 101.892L31.9936 101.892L33.4568 99.1021ZM26.8492 92.2999L24.026 93.6972L26.8492 92.2999ZM99.1532 92.2999L101.976 93.6972L99.1532 92.2999ZM92.5455 99.1021L94.0087 101.892L94.0087 101.892L92.5455 99.1021ZM100.326 61.0548L103.382 60.2923L103.382 60.2923L100.326 61.0548ZM92.7928 50.5748L94.9336 48.2641L92.7928 50.5748ZM98.2736 56.311L100.92 54.6025L100.92 54.6025L98.2736 56.311ZM25.6764 61.0548L22.6201 60.2923L22.6201 60.2923L25.6764 61.0548ZM33.2096 50.5748L31.0687 48.2641L33.2096 50.5748ZM27.7287 56.311L25.0823 54.6025L25.0823 54.6025L27.7287 56.311ZM68.597 72.7718L67.7817 75.8145L68.597 72.7718ZM75.2792 79.454L78.3218 78.6387L78.3218 78.6387L75.2792 79.454ZM57.4053 72.7718L56.5901 69.7292L56.5901 69.7292L57.4053 72.7718ZM50.7232 79.454L47.6805 78.6387L47.6805 78.6387L50.7232 79.454ZM97.6512 69.0859V75.8944H103.951V69.0859H97.6512ZM76.6092 97.6486H49.3932V103.949H76.6092V97.6486ZM28.3512 75.8944V69.0859H22.0512V75.8944H28.3512ZM35.3504 52.8855L48.9584 40.2777L44.6767 35.6564L31.0687 48.2641L35.3504 52.8855ZM77.0439 40.2777L90.6519 52.8855L94.9336 48.2641L81.3256 35.6564L77.0439 40.2777ZM48.9584 40.2777C51.8548 37.5943 53.8957 35.7064 55.6109 34.3501C57.2967 33.017 58.4705 32.3614 59.567 32.0207L57.6977 26.0044C55.5595 26.6687 53.686 27.8405 51.7032 29.4085C49.7496 30.9533 47.5005 33.0402 44.6767 35.6564L48.9584 40.2777ZM81.3256 35.6564C78.5019 33.0402 76.2527 30.9533 74.2992 29.4085C72.3163 27.8405 70.4428 26.6687 68.3047 26.0044L66.4354 32.0207C67.5318 32.3614 68.7056 33.017 70.3915 34.3501C72.1066 35.7064 74.1475 37.5943 77.0439 40.2777L81.3256 35.6564ZM59.567 32.0207C61.8073 31.3246 64.195 31.3246 66.4354 32.0207L68.3047 26.0044C64.8468 24.93 61.1555 24.93 57.6977 26.0044L59.567 32.0207ZM49.3932 97.6486C45.1057 97.6486 42.0851 97.646 39.7264 97.4477C37.4073 97.2526 36.0112 96.8849 34.92 96.3126L31.9936 101.892C34.1368 103.016 36.4749 103.496 39.1984 103.725C41.8823 103.951 45.2127 103.949 49.3932 103.949V97.6486ZM22.0512 75.8944C22.0512 80.2026 22.0489 83.6177 22.267 86.3668C22.4879 89.15 22.9497 91.5226 24.026 93.6972L29.6723 90.9026C29.1007 89.7477 28.7384 88.2761 28.5473 85.8684C28.3535 83.4264 28.3512 80.3036 28.3512 75.8944H22.0512ZM34.92 96.3126C32.6747 95.1349 30.8323 93.2464 29.6723 90.9026L24.026 93.6972C25.7652 97.211 28.5489 100.085 31.9936 101.892L34.92 96.3126ZM97.6512 75.8944C97.6512 80.3036 97.6489 83.4264 97.455 85.8684C97.2639 88.2761 96.9017 89.7477 96.3301 90.9026L101.976 93.6972C103.053 91.5226 103.514 89.15 103.735 86.3668C103.953 83.6177 103.951 80.2026 103.951 75.8944H97.6512ZM76.6092 103.949C80.7897 103.949 84.1201 103.951 86.804 103.725C89.5274 103.496 91.8655 103.016 94.0087 101.892L91.0823 96.3126C89.9912 96.8849 88.5951 97.2526 86.2759 97.4477C83.9173 97.646 80.8967 97.6486 76.6092 97.6486V103.949ZM96.3301 90.9026C95.17 93.2464 93.3276 95.1349 91.0823 96.3126L94.0087 101.892C97.4534 100.085 100.237 97.211 101.976 93.6972L96.3301 90.9026ZM103.951 69.0859C103.951 65.1594 103.973 62.6605 103.382 60.2923L97.2696 61.8173C97.6293 63.2591 97.6512 64.8443 97.6512 69.0859H103.951ZM90.6519 52.8855C93.7175 55.7257 94.8345 56.7917 95.6272 58.0196L100.92 54.6025C99.5976 52.5542 97.7658 50.8881 94.9336 48.2641L90.6519 52.8855ZM103.382 60.2923C102.878 58.2705 102.046 56.347 100.92 54.6025L95.6272 58.0196C96.3755 59.1786 96.9315 60.4622 97.2696 61.8173L103.382 60.2923ZM28.3512 69.0859C28.3512 64.8443 28.3731 63.2591 28.7328 61.8173L22.6201 60.2923C22.0293 62.6605 22.0512 65.1594 22.0512 69.0859H28.3512ZM31.0687 48.2641C28.2365 50.8881 26.4047 52.5542 25.0823 54.6025L30.3751 58.0196C31.1678 56.7917 32.2849 55.7257 35.3504 52.8855L31.0687 48.2641ZM28.7328 61.8173C29.0708 60.4622 29.6268 59.1786 30.3751 58.0196L25.0823 54.6025C23.956 56.347 23.1245 58.2705 22.6201 60.2923L28.7328 61.8173ZM72.4512 85.0498V100.8H78.7512V85.0498H72.4512ZM53.5512 100.8V85.0498H47.2512V100.8H53.5512ZM63.0012 75.5998C66.1334 75.5998 67.0816 75.6269 67.7817 75.8145L69.4123 69.7292C67.709 69.2728 65.7278 69.2998 63.0012 69.2998V75.5998ZM78.7512 85.0498C78.7512 82.3232 78.7782 80.342 78.3218 78.6387L72.2365 80.2693C72.4241 80.9695 72.4512 81.9176 72.4512 85.0498H78.7512ZM67.7817 75.8145C69.9558 76.3971 71.654 78.0952 72.2365 80.2693L78.3218 78.6387C77.1567 74.2906 73.7604 70.8943 69.4123 69.7292L67.7817 75.8145ZM63.0012 69.2998C60.2746 69.2998 58.2933 69.2728 56.5901 69.7292L58.2206 75.8145C58.9208 75.6269 59.869 75.5998 63.0012 75.5998V69.2998ZM53.5512 85.0498C53.5512 81.9176 53.5782 80.9695 53.7658 80.2693L47.6805 78.6387C47.2241 80.342 47.2512 82.3232 47.2512 85.0498H53.5512ZM56.5901 69.7292C52.2419 70.8943 48.8456 74.2906 47.6805 78.6387L53.7658 80.2693C54.3484 78.0952 56.0465 76.3971 58.2206 75.8145L56.5901 69.7292Z" fill="#333333"/>
</svg>
