<svg width="126" height="126" viewBox="0 0 126 126" fill="none" xmlns="http://www.w3.org/2000/svg">
<path d="M56.2363 35.9504C50.386 33.0996 43.8139 31.5 36.8681 31.5C29.9224 31.5 23.3503 33.0996 17.5 35.9504V91.2879C23.3503 88.4371 29.9224 86.8375 36.8681 86.8375C46.1018 86.8375 54.6751 89.6644 61.77 94.5C68.8649 89.6644 77.4383 86.8375 86.6719 86.8375C93.6176 86.8375 100.19 88.4371 106.04 91.2879V35.9504C100.19 33.0996 93.6176 31.5 86.6719 31.5C79.7262 31.5 73.154 33.0996 67.3038 35.9504V75.77C67.3038 78.8262 64.8262 81.3038 61.77 81.3038C58.7138 81.3038 56.2363 78.8262 56.2363 75.77V35.9504Z" fill="#20BF6B"/>
</svg>
