<svg width="126" height="126" viewBox="0 0 126 126" fill="none" xmlns="http://www.w3.org/2000/svg">
<path d="M63.0012 74.9699C72.1346 74.9699 79.5387 67.3543 79.5387 57.9599C79.5387 48.5656 72.1346 40.95 63.0012 40.95C53.8678 40.95 46.4637 48.5656 46.4637 57.9599C46.4637 67.3543 53.8678 74.9699 63.0012 74.9699ZM63.0012 74.9699C40.9512 74.9699 40.7575 86.3559 40.7575 98.8817M63.0012 74.9699C85.0512 75.463 85.2448 86.3559 85.2448 98.8817M85.2448 98.8817C80.6138 100.8 74.7429 100.8 63.0012 100.8C51.2594 100.8 45.3886 100.8 40.7575 98.8817M85.2448 98.8817C91.4195 96.3241 96.3253 91.4183 98.8829 85.2436C100.801 80.6125 100.801 74.7417 100.801 62.9999C100.801 51.2582 100.801 45.3874 98.8829 40.7563C96.3253 34.5816 91.4195 29.6758 85.2448 27.1182C80.6138 25.2 74.7429 25.2 63.0012 25.2C51.2594 25.2 45.3886 25.2 40.7575 27.1182C34.5828 29.6758 29.6771 34.5816 27.1194 40.7563C25.2012 45.3874 25.2012 51.2582 25.2012 62.9999C25.2012 74.7417 25.2012 80.6125 27.1194 85.2436C29.6771 91.4183 34.5828 96.3241 40.7575 98.8817" stroke="#333333" stroke-width="5.25" stroke-linecap="round"/>
</svg>
